<?xml version="1.0" encoding="UTF-8"?><svg id="a" xmlns="http://www.w3.org/2000/svg" viewBox="0 0 330 330"><path d="M288.21,15c14.79,0,26.79,12,26.79,26.79V116.79c0,14.79-12,26.79-26.79,26.79H41.79c-14.79,0-26.79-12-26.79-26.79V41.79c0-14.79,12-26.79,26.79-26.79h246.43Zm0,171.43c14.79,0,26.79,12,26.79,26.79v75c0,14.79-12,26.79-26.79,26.79h-75c-14.79,0-26.79-12-26.79-26.79v-75c0-14.79,12-26.79,26.79-26.79h75Zm-144.64,26.79c0-14.79-12-26.79-26.79-26.79H41.79c-14.79,0-26.79,12-26.79,26.79v75c0,14.79,12,26.79,26.79,26.79H116.79c14.79,0,26.79-12,26.79-26.79v-75Z" fill="none" fill-rule="evenodd" stroke="#000" stroke-miterlimit="10" stroke-width="30"/></svg>