<?xml version="1.0" encoding="UTF-8"?><svg id="a" xmlns="http://www.w3.org/2000/svg" viewBox="0 0 24 24"><path d="M0,0H24V24H0V0Z" fill="rgba(255,255,255,0)"/><path d="M16.24,22c-.55,0-1-.45-1-1v-2.6c.06-.6-.13-1.21-.54-1.66-.37-.41-.35-1.04,.06-1.41,.15-.14,.35-.23,.55-.26,2.44-.29,4.69-1.07,4.69-5.3,0-.79-.23-1.56-.67-2.22-.4-.61-.55-1.35-.41-2.06,.09-.47,.09-.94,0-1.41-.75,.25-1.45,.62-2.09,1.09-.24,.17-.55,.23-.84,.15-1.8-.51-3.72-.51-5.52,0-.29,.08-.6,.02-.84-.15-.64-.47-1.35-.84-2.11-1.09-.1,.47-.1,.94,0,1.41,.13,.72-.02,1.47-.43,2.08-.44,.66-.67,1.44-.67,2.23,0,3.89,1.88,4.93,4.7,5.29,.38,.05,.69,.3,.82,.66,.12,.35,.04,.73-.21,1-.39,.42-.59,.99-.55,1.56v2.69c0,.55-.45,1-1,1s-1-.45-1-1v-.57c-2,.23-3.97-.56-5.27-2.09-.33-.36-.72-.66-1.16-.88-.54-.14-.86-.68-.72-1.22,.14-.54,.68-.86,1.22-.72,.77,.28,1.46,.75,2,1.36,1,1,2,1.88,3.9,1.52-.03-.54,.04-1.07,.23-1.58-2.06-.52-5-2-5-7,0-1.18,.35-2.34,1-3.33,.12-.18,.17-.4,.13-.62-.2-1.08-.09-2.19,.33-3.21,.11-.27,.35-.48,.63-.57,.34-.1,1.56-.3,3.87,1.2,1.87-.45,3.82-.45,5.69,0,2.31-1.5,3.53-1.31,3.86-1.2,.28,.09,.52,.3,.63,.57,.42,1.02,.53,2.14,.33,3.22-.04,.2,0,.4,.11,.57,.66,.99,1,2.15,1,3.34,0,5.07-2.92,6.54-5,7,.18,.54,.26,1.1,.22,1.67v2.54c0,.53-.41,.97-.94,1Z" fill="#231f20"/></svg>