<?xml version="1.0" encoding="UTF-8"?><svg id="a" xmlns="http://www.w3.org/2000/svg" viewBox="0 0 743.43 415.01"><path d="M743.35,47.66v63.34h-172.41v86.4h143.01v64.36h-142.74v84.44h172.21c0,20.98,.1,40.97-.2,60.95-.02,1.44,.31,7.52-4.49,7.71s-3.54,0-5.34,0c-76.29,.12-152.58-.1-228.87,0-2.94,0-5.89,.17-9.5,0V47.66h248.33Z" fill="#5b574b"/><path d="M227.16,47.5c68.02,122.48,135.55,244.81,203.62,367.36-3.47,.32-6.98,0-9.3,0-23.22,.03-48.81-.32-72.02,0-6.35,.09-9.81,.31-12.85-5.19-34.11-61.68-68.46-123.23-102.76-184.81-2.2-3.95-4.5-7.85-7.62-13.28-7.46,13.33-11.88,22.99-18.59,35.08-29.6,53.37-59.26,106.7-88.64,160.2-3.17,5.77-6.56,8.08-13.4,8-24.12-.27-48.25-.2-72.38,0-3.24,.03-6.47,0-11.73,0C90.15,291.32,159.07,170.03,227.16,47.5Z" fill="#5b574b"/><path d="M475.39,4.35h256.08V80.71h-169.17c0,22.38,.05,43.57-.03,64.77-.02,5.73,3.7,5.68,7.77,5.69,41.03,.16,82.06,.36,123.09,.55,2.9,.01,5.81,0,9.2,0h0c.33,2.17,.79,3.82,.8,5.48,.17,20.95,0,41.9,.57,62.84,.2,7.24-2.44,8.92-9.15,8.88-40.74-.23-81.49,.14-122.23-.29-8.86-.09-10.75,2.97-10.23,11.89,.9,15.4,.76,30.84,0,46.24-.41,8.28,1.2,11.29,9.74,11.23,49.3-.33,98.61-.07,147.92,0,3.51,0,7.03,0,10.97,0h0c.39,2.07,.95,3.71,.97,5.36,.26,21.24,.35,42.48,.69,63.71,.08,5.16-.74,8.27-7.09,8.25-81.78-.29-163.56-.39-245.34-.57-1.41,0-2.81-.51-4.54-.84h0V4.35h0Zm249.47,6.47h-244.07V368.35h0c3.55,.16,6.44,.41,9.34,.41,74.98-.1,149.96-.22,224.94-.34,1.77,0,3.78,.46,5.25-.22,1.78-.83,4.39-2.63,4.41-4.05,.29-19.64,.2-39.28,.2-59.9h-163.86c-2.98,0-5.39-2.41-5.39-5.39v-72.21c0-2.98,2.41-5.39,5.39-5.39h134.9v-63.26h-135.16c-2.98,0-5.39-2.41-5.39-5.39V79.5c0-3.55,2.88-6.42,6.42-6.42h163.03V10.82h0Z" fill="#c0c171"/><path d="M416.25,375.25c-33.17,0-64.12,.15-95.05-.28-2.47-.03-5.69-3.62-7.21-6.32-26.71-47.53-53.18-95.19-79.78-142.78-7.58-13.57-15.39-27.02-23.86-41.84-8.46,15.15-16.21,28.92-23.86,42.75-26.14,47.22-52.16,94.5-78.57,141.56-1.76,3.13-6.38,6.56-9.71,6.6-31.28,.38-62.57,.05-93.86-.11-1.09,0-2.17-.47-4.35-.97C69.4,249,138.44,124.8,207.82,0c69.45,125.03,138.35,249.08,208.44,375.25ZM207.87,13.11C142.08,131.48,76.65,249.22,10.33,368.56c5.08,0,8.21,.02,11.33,0,23.31-.19,46.62-.67,69.92-.41,6.61,.07,9.89-2.31,12.94-7.88,28.38-51.68,57.03-103.2,85.63-154.76,6.47-11.67,13.04-23.3,20.25-36.18,3.01,5.24,5.23,9.01,7.36,12.83,33.13,59.49,66.31,118.95,99.27,178.53,2.94,5.31,6.28,7.49,12.42,7.41,22.43-.31,44.86-.07,67.29-.1,2.24,0,4.48-.39,7.84-.7C338.82,248.9,273.58,131.42,207.87,13.11Z" fill="#c0c171"/></svg>