<?xml version="1.0" encoding="UTF-8"?><svg id="a" xmlns="http://www.w3.org/2000/svg" viewBox="0 0 330 360.78"><path d="M165,122.69c-31.86,0-57.69,25.83-57.69,57.69s25.83,57.69,57.69,57.69,57.69-25.83,57.69-57.69-25.83-57.69-57.69-57.69h0Z" fill="none" stroke="#000" stroke-miterlimit="10" stroke-width="30"/><path d="M165,15c-10.84,0-20.74,2.98-31.56,8.01-10.47,4.86-22.59,12.04-37.75,21.02l-11.58,6.86c-15.17,8.99-27.29,16.16-36.63,23.03-9.66,7.1-17.06,14.36-22.42,23.89-5.35,9.51-7.77,19.68-8.93,31.74-1.13,11.7-1.13,26.02-1.13,44.01v13.66c0,17.99,0,32.32,1.13,44.01,1.16,12.06,3.58,22.23,8.93,31.74,5.36,9.52,12.77,16.79,22.42,23.89,9.34,6.86,21.46,14.04,36.63,23.03l11.58,6.86c15.17,8.98,27.29,16.16,37.75,21.02,10.82,5.03,20.72,8.01,31.56,8.01s20.74-2.98,31.56-8.01c10.47-4.86,22.59-12.04,37.75-21.02l11.58-6.86c15.17-8.99,27.29-16.16,36.63-23.03,9.66-7.1,17.06-14.36,22.42-23.89,5.35-9.51,7.77-19.68,8.93-31.74,1.13-11.7,1.13-26.02,1.13-44.01v-13.66c0-17.99,0-32.32-1.13-44.01-1.16-12.06-3.58-22.23-8.93-31.74-5.36-9.52-12.77-16.79-22.42-23.89-9.34-6.86-21.45-14.04-36.63-23.03l-11.58-6.86c-15.17-8.98-27.29-16.16-37.75-21.02-10.82-5.03-20.72-8.01-31.56-8.01h0Z" fill="none" stroke="#000" stroke-miterlimit="10" stroke-width="30"/></svg>