<?xml version="1.0" encoding="UTF-8"?><svg id="a" xmlns="http://www.w3.org/2000/svg" viewBox="0 0 800 800"><path d="M400,0C179.06,0,0,179.06,0,400s179.06,400,400,400,400-179.06,400-400S620.94,0,400,0Zm159.69,337.81c.16,3.44,.16,7.03,.16,10.62,0,108.59-82.66,233.91-233.91,233.91-46.41,0-89.69-13.59-125.94-36.88,6.41,.78,12.97,1.09,19.69,1.09,38.44,0,73.91-13.12,102.03-35.16-35.94-.62-66.41-24.38-76.72-57.03,5,.94,10.16,1.41,15.47,1.41,7.5,0,14.84-.94,21.72-2.97-37.66-7.5-65.94-40.78-65.94-80.63v-.94c11.09,6.09,23.75,9.84,37.19,10.31-22.03-14.69-36.56-40-36.56-68.44,0-15,4.06-29.22,11.09-41.41,40.63,49.84,101.09,82.5,169.38,85.94-1.41-5.94-2.19-12.19-2.19-18.75,0-45.31,36.87-82.19,82.19-82.19,23.59,0,45,10,60,25.94,18.75-3.75,36.25-10.47,52.19-20-6.09,19.22-19.22,35.31-36.09,45.47,16.56-2.03,32.5-6.41,47.19-12.97-10.94,16.56-24.84,30.94-40.94,42.66Z"/></svg>