<?xml version="1.0" encoding="UTF-8"?><svg id="a" xmlns="http://www.w3.org/2000/svg" viewBox="0 0 32 22.69"><path d="M24.75,12.89c-1.47,0-2.85-.62-4.1-1.64l.3-1.43v-.06c.29-1.52,1.14-4.08,3.8-4.08,1.99,0,3.6,1.61,3.6,3.6s-1.61,3.6-3.6,3.6h0Zm0-10.85c-3.39,0-6.02,2.2-7.08,5.82C16.04,5.41,14.8,2.47,14.08,0h-3.65V9.48c0,1.87-1.52,3.39-3.4,3.4-1.88,0-3.39-1.53-3.4-3.4V0H0V9.48c0,3.89,3.16,7.07,7.04,7.07s7.04-3.18,7.04-7.07v-1.59c.71,1.47,1.58,2.97,2.64,4.3l-2.23,10.49h3.73l1.62-7.61c1.42,.91,3.05,1.48,4.92,1.48,4,0,7.25-3.27,7.25-7.27s-3.25-7.25-7.25-7.25h0Z"/></svg>